<?xml version="1.0" standalone="no"?>
<!DOCTYPE svg PUBLIC "-//W3C//DTD SVG 20010904//EN"
 "http://www.w3.org/TR/2001/REC-SVG-20010904/DTD/svg10.dtd">
<svg version="1.0" xmlns="http://www.w3.org/2000/svg"
 width="871.000000pt" height="887.000000pt" viewBox="0 0 871.000000 887.000000"
 preserveAspectRatio="xMidYMid meet">

<g transform="translate(0.000000,887.000000) scale(0.100000,-0.100000)"
fill="#000000" stroke="none">
<path d="M4390 6116 c0 -2 8 -10 18 -17 15 -13 16 -12 3 4 -13 16 -21 21 -21
13z"/>
<path d="M4420 6076 c0 -2 8 -10 18 -17 15 -13 16 -12 3 4 -13 16 -21 21 -21
13z"/>
<path d="M4490 5996 c0 -2 8 -10 18 -17 15 -13 16 -12 3 4 -13 16 -21 21 -21
13z"/>
<path d="M4215 5954 c-9 -15 -12 -23 -6 -20 11 7 35 46 28 46 -3 0 -12 -12
-22 -26z"/>
<path d="M4441 5953 c8 -10 31 -36 53 -58 31 -32 30 -29 -9 18 -26 31 -50 57
-52 57 -3 0 1 -8 8 -17z"/>
<path d="M4530 5946 c0 -2 8 -10 18 -17 15 -13 16 -12 3 4 -13 16 -21 21 -21
13z"/>
<path d="M4175 5890 c-9 -16 -13 -30 -11 -30 3 0 12 14 21 30 9 17 13 30 11
30 -3 0 -12 -13 -21 -30z"/>
<path d="M4349 5818 c-45 -57 -84 -105 -85 -106 -1 -2 -17 -1 -35 3 l-33 7 45
43 c63 60 103 108 49 59 -84 -76 -105 -94 -111 -94 -4 0 -9 -6 -12 -13 -4 -10
1 -13 16 -10 12 2 30 -2 40 -9 16 -12 14 -17 -29 -68 l-46 -55 51 54 c28 30
48 58 45 62 -3 5 2 6 10 3 9 -3 16 -9 16 -13 0 -4 16 -13 35 -20 19 -7 35 -16
35 -22 0 -10 3 -6 -134 -171 -58 -70 -100 -125 -93 -122 13 6 55 56 169 201
46 58 79 91 88 89 8 -3 58 -23 110 -46 117 -52 148 -64 135 -52 -5 4 -63 32
-128 62 -79 36 -116 58 -113 67 4 10 1 10 -15 0 -13 -8 -22 -9 -27 -2 -4 6
-20 16 -36 23 -32 14 -34 7 39 97 68 83 107 135 102 135 -3 0 -42 -46 -88
-102z"/>
<path d="M4560 5906 c0 -2 8 -10 18 -17 15 -13 16 -12 3 4 -13 16 -21 21 -21
13z"/>
<path d="M4611 5844 c13 -17 26 -30 28 -27 3 2 -8 16 -24 31 l-28 27 24 -31z"/>
<path d="M4146 5833 c-6 -14 -5 -15 5 -6 7 7 10 15 7 18 -3 3 -9 -2 -12 -12z"/>
<path d="M4540 5833 c0 -6 8 -17 18 -24 16 -13 16 -13 2 6 -8 11 -16 22 -17
24 -2 2 -3 0 -3 -6z"/>
<path d="M4113 5774 c-3 -8 -12 -13 -19 -10 -8 3 -14 1 -14 -4 0 -6 1 -10 3
-10 1 0 17 -4 35 -9 20 -6 32 -6 32 0 0 5 -7 9 -16 9 -11 0 -15 6 -11 20 6 24
-1 27 -10 4z"/>
<path d="M4755 5680 c108 -109 115 -115 115 -105 0 7 -212 215 -219 215 -3 0
44 -49 104 -110z"/>
<path d="M4087 5733 c-4 -3 -7 -11 -7 -17 0 -6 5 -5 12 2 6 6 9 14 7 17 -3 3
-9 2 -12 -2z"/>
<path d="M4640 5690 c6 -11 13 -20 16 -20 2 0 0 9 -6 20 -6 11 -13 20 -16 20
-2 0 0 -9 6 -20z"/>
<path d="M4036 5624 c-3 -11 -27 -35 -51 -53 -53 -38 -58 -47 -12 -24 38 20
80 68 74 86 -2 7 -7 3 -11 -9z"/>
<path d="M4101 5526 l-35 -41 39 37 c22 21 37 39 35 41 -3 2 -20 -15 -39 -37z"/>
<path d="M4740 5566 c0 -2 8 -10 18 -17 15 -13 16 -12 3 4 -13 16 -21 21 -21
13z"/>
<path d="M4870 5557 c0 -2 15 -16 33 -33 l32 -29 -29 33 c-28 30 -36 37 -36
29z"/>
<path d="M3621 5524 c0 -11 3 -14 6 -6 3 7 2 16 -1 19 -3 4 -6 -2 -5 -13z"/>
<path d="M4630 5534 c0 -9 33 -33 44 -34 6 0 0 9 -12 20 -22 21 -32 25 -32 14z"/>
<path d="M3894 5498 l-19 -23 25 20 c14 11 27 21 29 22 2 2 0 3 -6 3 -5 0 -18
-10 -29 -22z"/>
<path d="M4706 5495 c10 -8 26 -14 34 -15 8 0 2 7 -14 15 -36 19 -45 19 -20 0z"/>
<path d="M3617 5465 c-4 -22 -6 -58 -6 -80 1 -34 3 -32 10 20 11 69 7 121 -4
60z"/>
<path d="M3820 5439 l-45 -41 42 32 c38 28 60 50 51 50 -2 0 -24 -18 -48 -41z"/>
<path d="M4780 5466 c14 -8 32 -15 41 -16 9 0 24 -9 33 -19 10 -11 25 -17 33
-14 11 4 6 11 -19 23 -20 9 -44 19 -54 22 -11 3 -28 9 -39 13 -13 4 -12 1 5
-9z"/>
<path d="M4029 5443 c-13 -16 -12 -17 4 -4 9 7 17 15 17 17 0 8 -8 3 -21 -13z"/>
<path d="M4710 5441 c0 -6 4 -13 10 -16 6 -3 7 1 4 9 -7 18 -14 21 -14 7z"/>
<path d="M4815 5334 c96 -95 235 -223 250 -231 14 -7 -81 84 -216 206 -90 82
-97 87 -34 25z"/>
<path d="M3712 5348 c-29 -28 -51 -52 -49 -54 2 -2 27 19 56 47 28 28 51 53
49 54 -2 2 -27 -19 -56 -47z"/>
<path d="M5040 5355 c13 -14 26 -25 28 -25 3 0 -5 11 -18 25 -13 14 -26 25
-28 25 -3 0 5 -11 18 -25z"/>
<path d="M3612 5315 c0 -16 2 -22 5 -12 2 9 2 23 0 30 -3 6 -5 -1 -5 -18z"/>
<path d="M4059 5293 l-34 -38 38 34 c20 19 37 36 37 38 0 8 -8 0 -41 -34z"/>
<path d="M3627 5262 c-13 -14 -17 -38 -17 -95 0 -44 4 -77 10 -77 6 0 7 26 4
70 -5 55 -3 75 10 95 19 29 16 33 -7 7z"/>
<path d="M3821 5238 c-14 -23 -14 -23 8 -4 22 20 25 26 13 26 -4 0 -13 -10
-21 -22z"/>
<path d="M5270 5244 c0 -8 5 -12 10 -9 6 4 8 11 5 16 -9 14 -15 11 -15 -7z"/>
<path d="M5325 5230 c3 -5 8 -10 11 -10 2 0 4 5 4 10 0 6 -5 10 -11 10 -5 0
-7 -4 -4 -10z"/>
<path d="M5262 5200 c0 -14 2 -19 5 -12 2 6 2 18 0 25 -3 6 -5 1 -5 -13z"/>
<path d="M3795 5199 c-4 -6 -5 -12 -2 -15 2 -3 7 2 10 11 7 17 1 20 -8 4z"/>
<path d="M5321 5194 c0 -11 3 -14 6 -6 3 7 2 16 -1 19 -3 4 -6 -2 -5 -13z"/>
<path d="M3959 5183 c-13 -16 -12 -17 4 -4 9 7 17 15 17 17 0 8 -8 3 -21 -13z"/>
<path d="M5100 5193 c0 -4 21 -24 46 -42 26 -19 59 -46 74 -60 66 -62 71 -66
65 -49 -4 9 -13 19 -21 22 -14 5 -13 19 3 79 2 9 0 17 -6 17 -6 0 -11 -16 -11
-35 0 -41 -11 -44 -38 -10 -11 13 -21 22 -24 20 -2 -3 -23 11 -46 31 -23 19
-42 32 -42 27z"/>
<path d="M3735 5170 c4 -6 1 -17 -5 -25 -7 -9 -8 -15 -2 -15 10 0 22 23 22 41
0 5 -5 9 -11 9 -5 0 -7 -5 -4 -10z"/>
<path d="M5318 5147 c-3 -13 -1 -32 3 -43 5 -13 8 -7 8 24 1 46 -4 55 -11 19z"/>
<path d="M5380 5156 c0 -2 8 -10 18 -17 15 -13 16 -12 3 4 -13 16 -21 21 -21
13z"/>
<path d="M3851 5134 c0 -11 3 -14 6 -6 3 7 2 16 -1 19 -3 4 -6 -2 -5 -13z"/>
<path d="M3879 5093 c-13 -16 -12 -17 4 -4 16 13 21 21 13 21 -2 0 -10 -8 -17
-17z"/>
<path d="M3723 5077 c-2 -39 -20 -149 -39 -247 -15 -73 -20 -87 -22 -60 -2 19
-8 40 -13 45 -7 7 -8 0 -2 -20 4 -16 8 -62 8 -102 0 -39 1 -70 3 -69 1 2 13
62 26 134 12 72 29 138 36 147 8 9 8 15 2 15 -11 0 -8 43 9 119 6 24 6 48 2
52 -4 4 -9 -2 -10 -14z"/>
<path d="M5100 5074 c0 -5 19 -32 43 -59 62 -72 75 -97 66 -120 -4 -11 -7 -33
-7 -50 0 -24 2 -21 12 16 l11 47 18 -23 c9 -13 17 -36 18 -52 0 -15 3 -22 6
-15 2 6 9 9 15 6 11 -7 -3 21 -38 77 -16 26 -19 40 -12 53 5 10 7 20 5 23 -3
3 -2 16 3 29 5 13 6 26 1 28 -4 3 -8 0 -9 -7 0 -7 -3 -25 -6 -42 -2 -16 -5
-34 -5 -38 -1 -4 -22 18 -47 50 -60 75 -74 89 -74 77z"/>
<path d="M5307 5033 c-6 -47 -1 -639 7 -738 2 -27 7 -120 11 -205 4 -85 9
-157 12 -160 3 -3 2 94 -2 215 -12 367 -17 745 -11 873 2 62 -10 73 -17 15z"/>
<path d="M3631 5052 c-11 -21 -3 -160 10 -168 8 -5 5 45 -6 119 -3 16 0 37 5
48 6 10 8 19 6 19 -3 0 -10 -8 -15 -18z"/>
<path d="M3835 5044 c-9 -15 -12 -23 -6 -19 8 4 10 -6 5 -37 -4 -24 -4 -41 -1
-37 4 3 8 26 11 52 3 26 7 51 11 57 14 23 -4 8 -20 -16z"/>
<path d="M3784 4988 l-19 -23 23 19 c12 11 22 21 22 23 0 8 -8 2 -26 -19z"/>
<path d="M5262 4935 c0 -16 2 -22 5 -12 2 9 2 23 0 30 -3 6 -5 -1 -5 -18z"/>
<path d="M3825 4904 c-3 -22 -11 -67 -17 -102 -6 -35 -8 -65 -5 -69 7 -7 13
18 27 121 10 79 7 122 -5 50z"/>
<path d="M3763 4880 c0 -25 2 -35 4 -22 2 12 2 32 0 45 -2 12 -4 2 -4 -23z"/>
<path d="M3641 4854 c0 -11 3 -14 6 -6 3 7 2 16 -1 19 -3 4 -6 -2 -5 -13z"/>
<path d="M3609 4793 c-13 -16 -12 -17 4 -4 16 13 21 21 13 21 -2 0 -10 -8 -17
-17z"/>
<path d="M3752 4790 c0 -14 2 -19 5 -12 2 6 2 18 0 25 -3 6 -5 1 -5 -13z"/>
<path d="M5190 4799 c0 -5 5 -7 10 -4 6 3 10 8 10 11 0 2 -4 4 -10 4 -5 0 -10
-5 -10 -11z"/>
<path d="M5261 4774 c0 -11 3 -14 6 -6 3 7 2 16 -1 19 -3 4 -6 -2 -5 -13z"/>
<path d="M5182 4725 c-7 -32 -12 -68 -11 -79 0 -12 7 11 15 49 8 39 12 74 11
80 -2 5 -9 -17 -15 -50z"/>
<path d="M3752 4735 c0 -16 2 -22 5 -12 2 9 2 23 0 30 -3 6 -5 -1 -5 -18z"/>
<path d="M5251 4724 c0 -11 3 -14 6 -6 3 7 2 16 -1 19 -3 4 -6 -2 -5 -13z"/>
<path d="M3792 4715 c3 -5 -1 -41 -8 -80 -8 -38 -19 -106 -24 -150 -5 -44 -16
-111 -25 -150 -8 -38 -15 -74 -16 -80 -1 -5 -8 13 -15 40 l-14 50 6 -45 c12
-87 11 -123 0 -181 -7 -32 -9 -56 -4 -53 4 3 8 12 8 20 0 9 5 12 12 8 8 -5 9
0 5 16 -5 20 24 225 37 260 3 8 10 51 15 95 6 44 17 116 25 160 10 57 12 83 4
90 -7 7 -9 7 -6 0z"/>
<path d="M3753 4655 c0 -27 2 -38 4 -22 2 15 2 37 0 50 -2 12 -4 0 -4 -28z"/>
<path d="M5251 4684 c0 -11 3 -14 6 -6 3 7 2 16 -1 19 -3 4 -6 -2 -5 -13z"/>
<path d="M3671 4589 c1 -24 5 -55 9 -69 6 -16 7 -1 3 40 -7 76 -13 93 -12 29z"/>
<path d="M5161 4604 c0 -11 3 -14 6 -6 3 7 2 16 -1 19 -3 4 -6 -2 -5 -13z"/>
<path d="M5152 4555 c0 -16 2 -22 5 -12 2 9 2 23 0 30 -3 6 -5 -1 -5 -18z"/>
<path d="M5243 4510 c0 -25 2 -35 4 -22 2 12 2 32 0 45 -2 12 -4 2 -4 -23z"/>
<path d="M3621 4484 c0 -11 3 -14 6 -6 3 7 2 16 -1 19 -3 4 -6 -2 -5 -13z"/>
<path d="M3682 4465 c0 -16 4 -43 8 -60 11 -42 11 -1 1 50 -7 34 -9 35 -9 10z"/>
<path d="M5122 4358 c-7 -51 -14 -120 -17 -153 l-4 -60 10 65 c24 150 35 240
29 240 -4 0 -12 -42 -18 -92z"/>
<path d="M3611 4424 c0 -11 3 -14 6 -6 3 7 2 16 -1 19 -3 4 -6 -2 -5 -13z"/>
<path d="M5233 4375 c0 -22 2 -30 4 -17 2 12 2 30 0 40 -3 9 -5 -1 -4 -23z"/>
<path d="M3602 4365 c0 -16 2 -22 5 -12 2 9 2 23 0 30 -3 6 -5 -1 -5 -18z"/>
<path d="M4355 4350 c-11 -4 -32 -5 -47 -3 -16 3 -28 1 -28 -5 0 -11 246 -16
287 -6 46 12 11 21 -79 21 -60 1 -84 -2 -68 -7 23 -8 23 -8 -8 -9 -20 -1 -31
3 -27 9 7 12 -2 12 -30 0z"/>
<path d="M4601 4344 c0 -11 3 -14 6 -6 3 7 2 16 -1 19 -3 4 -6 -2 -5 -13z"/>
<path d="M4620 4349 c0 -8 70 -2 79 6 2 3 -14 4 -37 3 -23 -1 -42 -5 -42 -9z"/>
<path d="M4602 4260 c0 -19 2 -27 5 -17 2 9 2 25 0 35 -3 9 -5 1 -5 -18z"/>
<path d="M4262 4250 c0 -14 2 -19 5 -12 2 6 2 18 0 25 -3 6 -5 1 -5 -13z"/>
<path d="M4621 4254 c0 -11 3 -14 6 -6 3 7 2 16 -1 19 -3 4 -6 -2 -5 -13z"/>
<path d="M3578 4185 c-2 -25 0 -45 4 -45 5 0 8 20 8 45 0 25 -2 45 -4 45 -2 0
-6 -20 -8 -45z"/>
<path d="M5222 4200 c0 -19 2 -27 5 -17 2 9 2 25 0 35 -3 9 -5 1 -5 -18z"/>
<path d="M3782 4195 c0 -16 2 -22 5 -12 2 9 2 23 0 30 -3 6 -5 -1 -5 -18z"/>
<path d="M4623 4155 c0 -27 2 -38 4 -22 2 15 2 37 0 50 -2 12 -4 0 -4 -28z"/>
<path d="M4232 4170 c0 -14 2 -19 5 -12 2 6 2 18 0 25 -3 6 -5 1 -5 -13z"/>
<path d="M4602 4170 c0 -14 2 -19 5 -12 2 6 2 18 0 25 -3 6 -5 1 -5 -13z"/>
<path d="M4248 4153 c-1 -16 -3 -48 -4 -73 -1 -25 -5 -74 -9 -110 -12 -112
-13 -140 -3 -134 6 4 8 20 6 36 -3 18 0 32 8 35 9 3 12 39 12 139 -1 74 -3
134 -4 134 -2 0 -5 -12 -6 -27z"/>
<path d="M5093 4105 c0 -22 2 -30 4 -17 2 12 2 30 0 40 -3 9 -5 -1 -4 -23z"/>
<path d="M3569 4090 c-7 -35 -4 -48 7 -38 3 4 4 21 2 40 l-3 33 -6 -35z"/>
<path d="M4595 4006 c-4 -63 -5 -131 -3 -150 3 -31 1 -35 -22 -38 -23 -3 -22
-4 8 -9 l32 -6 0 159 c0 87 -2 158 -4 158 -2 0 -7 -51 -11 -114z"/>
<path d="M4623 3930 c0 -91 3 -174 8 -185 6 -14 7 -7 5 23 -3 37 0 42 18 43
15 1 17 2 4 6 -13 3 -17 23 -23 111 -10 175 -12 176 -12 2z"/>
<path d="M5081 4044 c0 -11 3 -14 6 -6 3 7 2 16 -1 19 -3 4 -6 -2 -5 -13z"/>
<path d="M3556 4003 c-6 -14 -5 -15 5 -6 7 7 10 15 7 18 -3 3 -9 -2 -12 -12z"/>
<path d="M3670 3983 c0 -43 5 -41 13 5 4 18 2 32 -3 32 -6 0 -10 -16 -10 -37z"/>
<path d="M5212 3980 c0 -19 2 -27 5 -17 2 9 2 25 0 35 -3 9 -5 1 -5 -18z"/>
<path d="M5072 3975 c0 -16 2 -22 5 -12 2 9 2 23 0 30 -3 6 -5 -1 -5 -18z"/>
<path d="M3546 3944 c-4 -20 -5 -38 -3 -40 3 -3 8 11 11 32 4 20 5 38 3 40 -3
3 -8 -11 -11 -32z"/>
<path d="M3782 3930 c0 -14 2 -19 5 -12 2 6 2 18 0 25 -3 6 -5 1 -5 -13z"/>
<path d="M5213 3865 c0 -38 2 -53 4 -32 2 20 2 52 0 70 -2 17 -4 1 -4 -38z"/>
<path d="M5332 3885 c0 -16 2 -22 5 -12 2 9 2 23 0 30 -3 6 -5 -1 -5 -18z"/>
<path d="M5110 3884 c-33 -13 -33 -14 -5 -8 17 3 34 10 40 15 11 11 8 11 -35
-7z"/>
<path d="M3651 3864 c0 -11 3 -14 6 -6 3 7 2 16 -1 19 -3 4 -6 -2 -5 -13z"/>
<path d="M5051 3871 c-8 -6 -9 -11 -3 -15 6 -3 14 -1 17 5 9 14 2 20 -14 10z"/>
<path d="M4938 3849 c-141 -26 -146 -28 -60 -23 78 5 194 33 132 32 -14 0 -46
-4 -72 -9z"/>
<path d="M3642 3810 c0 -14 2 -19 5 -12 2 6 2 18 0 25 -3 6 -5 1 -5 -13z"/>
<path d="M4419 3819 c-10 -6 -4 -9 19 -9 17 0 32 2 32 4 0 9 -39 13 -51 5z"/>
<path d="M4721 3821 c-8 -5 2 -8 28 -7 23 0 41 4 41 8 0 11 -52 10 -69 -1z"/>
<path d="M4133 3813 c9 -2 25 -2 35 0 9 3 1 5 -18 5 -19 0 -27 -2 -17 -5z"/>
<path d="M4215 3810 c3 -5 12 -7 20 -3 21 7 19 13 -6 13 -11 0 -18 -4 -14 -10z"/>
<path d="M4260 3809 c0 -5 5 -7 10 -4 6 3 10 8 10 11 0 2 -4 4 -10 4 -5 0 -10
-5 -10 -11z"/>
<path d="M4338 3813 c12 -2 32 -2 45 0 12 2 2 4 -23 4 -25 0 -35 -2 -22 -4z"/>
<path d="M4488 3813 c6 -2 18 -2 25 0 6 3 1 5 -13 5 -14 0 -19 -2 -12 -5z"/>
<path d="M3988 3803 c17 -2 47 -2 65 0 17 2 3 4 -33 4 -36 0 -50 -2 -32 -4z"/>
<path d="M3908 3793 c7 -3 16 -2 19 1 4 3 -2 6 -13 5 -11 0 -14 -3 -6 -6z"/>
<path d="M4214 3775 c-3 -8 -4 -20 -2 -27 3 -7 7 -1 10 15 6 29 1 36 -8 12z"/>
<path d="M4597 3760 c3 -11 7 -20 9 -20 2 0 4 9 4 20 0 11 -4 20 -9 20 -5 0
-7 -9 -4 -20z"/>
<path d="M4718 3743 c7 -3 16 -2 19 1 4 3 -2 6 -13 5 -11 0 -14 -3 -6 -6z"/>
<path d="M3733 3713 c9 -2 23 -2 30 0 6 3 -1 5 -18 5 -16 0 -22 -2 -12 -5z"/>
<path d="M3915 3705 c55 -7 120 -13 145 -13 25 1 -2 6 -60 13 -58 7 -123 13
-145 13 -22 0 5 -6 60 -13z"/>
<path d="M4938 3713 c17 -2 32 -7 32 -11 0 -4 -79 -7 -175 -7 -117 1 -174 -3
-171 -10 2 -5 9 -9 15 -8 9 2 370 2 471 0 44 0 110 7 110 12 0 4 -35 7 -78 8
-42 1 -93 5 -112 8 -19 3 -55 7 -80 9 -25 2 -30 1 -12 -1z"/>
<path d="M3620 3699 c0 -5 5 -7 10 -4 6 3 10 8 10 11 0 2 -4 4 -10 4 -5 0 -10
-5 -10 -11z"/>
<path d="M4586 3691 c-19 -7 -19 -8 2 -13 15 -4 22 -2 22 8 0 8 -1 14 -2 13
-2 0 -12 -4 -22 -8z"/>
<path d="M5230 3690 c0 -5 5 -10 11 -10 5 0 7 5 4 10 -3 6 -8 10 -11 10 -2 0
-4 -4 -4 -10z"/>
<path d="M4128 3683 c12 -2 30 -2 40 0 9 3 -1 5 -23 4 -22 0 -30 -2 -17 -4z"/>
<path d="M4198 3683 c7 -3 16 -2 19 1 4 3 -2 6 -13 5 -11 0 -14 -3 -6 -6z"/>
<path d="M4438 3683 c23 -2 61 -2 85 0 23 2 4 4 -43 4 -47 0 -66 -2 -42 -4z"/>
<path d="M4353 3673 c9 -2 23 -2 30 0 6 3 -1 5 -18 5 -16 0 -22 -2 -12 -5z"/>
<path d="M5154 3655 c11 -8 24 -15 30 -15 5 0 1 7 -10 15 -10 8 -23 14 -29 14
-5 0 -1 -6 9 -14z"/>
<path d="M2755 2551 c3 -5 25 -17 50 -27 39 -14 51 -15 90 -4 25 7 48 17 52
23 4 7 0 7 -13 2 -38 -17 -112 -17 -145 -1 -37 18 -42 20 -34 7z"/>
<path d="M4800 2550 c0 -5 4 -10 9 -10 6 0 13 5 16 10 3 6 -1 10 -9 10 -9 0
-16 -4 -16 -10z"/>
<path d="M6018 2403 c-2 -87 -2 -160 0 -162 7 -13 11 20 18 162 5 111 4 157
-4 157 -7 0 -12 -52 -14 -157z"/>
<path d="M3571 2503 c0 -12 -9 -24 -18 -26 -16 -4 -16 -5 -1 -6 15 -1 16 -11
11 -90 -3 -49 -3 -100 1 -115 6 -23 11 -26 44 -24 35 1 36 1 5 5 -17 2 -34 12
-38 21 -3 9 -3 58 1 108 l7 93 36 4 36 4 -37 1 c-29 2 -37 6 -41 25 -4 22 -4
22 -6 0z"/>
<path d="M4641 2503 c0 -12 -9 -24 -18 -26 -14 -4 -14 -5 -3 -6 13 -1 16 -19
15 -113 l0 -113 40 -1 c34 -1 35 -1 7 3 -18 2 -36 11 -39 19 -3 8 -2 57 2 109
l7 94 36 4 37 4 -37 1 c-29 2 -37 6 -41 25 -4 22 -4 22 -6 0z"/>
<path d="M2549 2465 c-31 -17 -54 -66 -54 -116 0 -76 45 -114 126 -106 43 3
43 4 -9 5 -72 3 -102 31 -102 99 0 89 46 133 126 120 20 -4 32 -2 29 4 -9 14
-87 10 -116 -6z"/>
<path d="M2785 2470 c-12 -4 6 -6 42 -3 91 8 95 3 90 -124 -3 -56 -1 -103 4
-103 5 0 10 37 11 83 2 117 1 130 -19 144 -19 14 -97 16 -128 3z"/>
<path d="M3050 2460 c-11 -11 -20 -25 -20 -30 0 -6 25 -37 55 -70 30 -33 55
-64 55 -68 0 -4 -6 -16 -13 -26 -10 -14 -24 -17 -60 -15 -26 2 -47 1 -47 -3 0
-5 22 -8 48 -8 53 0 82 20 82 56 0 11 -22 42 -50 69 -27 27 -50 57 -50 66 0
26 27 42 65 37 19 -2 35 0 35 4 0 18 -80 8 -100 -12z"/>
<path d="M3250 2376 c0 -97 2 -106 22 -120 32 -23 100 -20 132 5 l26 20 0 -20
c0 -12 5 -21 10 -21 6 0 10 36 10 89 0 49 3 103 6 120 4 20 3 31 -5 31 -7 0
-11 -23 -11 -62 0 -80 -15 -133 -43 -153 -28 -20 -87 -19 -116 2 -23 15 -24
19 -18 115 3 56 1 98 -4 98 -5 0 -9 -47 -9 -104z"/>
<path d="M3769 2465 c-59 -32 -70 -146 -20 -196 25 -25 37 -29 85 -29 30 0 57
4 60 8 3 5 -21 6 -53 4 -55 -4 -59 -3 -84 28 -18 21 -27 43 -27 66 l0 34 96 0
96 0 -6 28 c-15 61 -87 90 -147 57z m111 -15 c11 -11 20 -29 20 -40 0 -18 -7
-20 -84 -20 -80 0 -84 1 -79 20 14 54 104 79 143 40z"/>
<path d="M4185 2470 c-12 -4 6 -6 42 -3 91 8 94 3 90 -123 -2 -57 0 -104 5
-104 4 0 8 28 8 63 0 34 3 78 6 98 9 53 -20 79 -83 78 -27 0 -57 -4 -68 -9z"/>
<path d="M4441 2439 c0 -25 -4 -80 -7 -122 -5 -55 -4 -77 5 -77 7 0 11 25 11
75 0 94 18 142 57 151 45 10 50 12 22 13 -15 1 -38 -8 -52 -19 l-26 -20 -4 22
c-2 13 -5 2 -6 -23z"/>
<path d="M4798 2360 c-2 -66 0 -120 3 -120 6 0 19 135 19 203 0 20 -4 37 -9
37 -6 0 -11 -54 -13 -120z"/>
<path d="M4920 2472 c0 -5 27 -6 60 -4 41 3 60 1 60 -7 0 -6 -31 -54 -70 -106
-38 -52 -70 -99 -70 -105 0 -6 32 -9 83 -8 l82 2 -72 3 c-40 2 -73 6 -73 9 0
3 32 48 71 101 39 52 73 101 76 109 4 11 -10 14 -71 14 -42 0 -76 -4 -76 -8z"/>
<path d="M5181 2471 c-8 -5 4 -7 32 -4 56 7 93 -2 101 -22 9 -24 -5 -46 -38
-61 -17 -7 -25 -13 -18 -14 7 0 22 5 33 11 20 10 21 8 17 -65 -5 -113 9 -92
17 26 7 98 7 103 -15 120 -24 19 -104 25 -129 9z"/>
<path d="M5431 2358 l2 -123 12 94 c10 82 15 97 39 117 32 28 81 31 114 8 20
-14 22 -24 23 -117 1 -84 3 -94 10 -57 4 25 8 69 8 98 1 66 -28 102 -83 102
-38 0 -86 -18 -86 -32 0 -4 -4 -8 -10 -8 -5 0 -10 9 -10 20 0 11 -4 20 -10 20
-6 0 -9 -47 -9 -122z"/>
<path d="M5765 2470 c-12 -4 6 -6 42 -3 91 8 95 3 90 -124 -3 -56 -1 -103 4
-103 5 0 9 28 9 63 0 34 3 78 6 98 9 53 -20 79 -83 78 -27 0 -57 -4 -68 -9z"/>
<path d="M6188 2465 c-40 -22 -64 -94 -49 -145 17 -56 52 -80 117 -80 29 0 55
4 58 9 3 5 -14 6 -39 4 -24 -3 -55 -3 -69 1 -30 7 -56 52 -56 96 l0 30 96 0
96 0 -6 28 c-15 62 -87 90 -148 57z m112 -15 c11 -11 20 -29 20 -40 0 -18 -7
-20 -85 -20 -54 0 -85 4 -85 11 0 6 13 24 29 40 36 36 90 40 121 9z"/>
<path d="M2835 2370 c-13 -5 -14 -9 -5 -9 8 0 24 4 35 9 13 5 14 9 5 9 -8 0
-24 -4 -35 -9z"/>
<path d="M4235 2370 c-13 -5 -14 -9 -5 -9 8 0 24 4 35 9 13 5 14 9 5 9 -8 0
-24 -4 -35 -9z"/>
<path d="M5815 2370 c-13 -5 -14 -9 -5 -9 8 0 24 4 35 9 13 5 14 9 5 9 -8 0
-24 -4 -35 -9z"/>
<path d="M5183 2355 c-45 -19 -61 -56 -39 -90 15 -22 22 -25 74 -23 l57 2 -50
3 c-57 5 -75 16 -75 48 0 26 23 48 65 63 17 6 23 11 15 11 -8 0 -30 -6 -47
-14z"/>
<path d="M2766 2339 c-57 -45 -21 -100 65 -98 l54 2 -58 6 c-88 10 -104 60
-32 99 11 6 15 12 9 12 -6 0 -23 -9 -38 -21z"/>
<path d="M4166 2339 c-57 -45 -21 -100 65 -98 l54 2 -58 6 c-88 10 -104 60
-32 99 11 6 15 12 9 12 -6 0 -23 -9 -38 -21z"/>
<path d="M5746 2339 c-57 -45 -21 -100 65 -98 l54 2 -58 6 c-88 10 -104 60
-32 99 11 6 15 12 9 12 -6 0 -23 -9 -38 -21z"/>
<path d="M3561 2158 c-15 -44 -7 -45 17 -3 16 26 18 35 8 35 -8 0 -19 -14 -25
-32z"/>
</g>
</svg>
